<?xml version="1.0" encoding="UTF-8" standalone="no"?>
<svg
   width="132.6134mm"
   height="95.1738mm"
   version="1.1"
   id="svg4"
   sodipodi:docname="plate.svg"
   inkscape:version="1.2.1 (9c6d41e4, 2022-07-14)"
   xmlns:inkscape="http://www.inkscape.org/namespaces/inkscape"
   xmlns:sodipodi="http://sodipodi.sourceforge.net/DTD/sodipodi-0.dtd"
   xmlns="http://www.w3.org/2000/svg"
   xmlns:svg="http://www.w3.org/2000/svg">
  <defs
     id="defs8">
    <linearGradient
       id="linearGradient982"
       inkscape:swatch="solid">
      <stop
         style="stop-color:#000000;stop-opacity:1;"
         offset="0"
         id="stop980" />
    </linearGradient>
  </defs>
  <sodipodi:namedview
     id="namedview6"
     pagecolor="#ffffff"
     bordercolor="#666666"
     borderopacity="1.0"
     inkscape:showpageshadow="2"
     inkscape:pageopacity="0.0"
     inkscape:pagecheckerboard="0"
     inkscape:deskcolor="#d1d1d1"
     inkscape:document-units="mm"
     showgrid="false"
     inkscape:zoom="32"
     inkscape:cx="121.64062"
     inkscape:cy="85.34375"
     inkscape:window-width="1803"
     inkscape:window-height="956"
     inkscape:window-x="1814"
     inkscape:window-y="332"
     inkscape:window-maximized="0"
     inkscape:current-layer="svg4" />
  <path
     d="m 130.264,78.079 -11.431,-5.154 c -1.9928,-0.654893 -3.3332,-2.523427 -3.315,-4.621 l -0.167,-29.511 c -0.0358,-0.461775 0.37696,-0.83138 0.832,-0.745 0.50168,0.135922 0.98847,-0.261248 0.956,-0.7795 L 116.976,15.546 c 0.38071,-2.200837 -1.42017,-4.168164 -3.646,-3.983 L 95.359,11.6 C 94.260004,11.619564 93.37521,10.702597 93.434,9.605 93.434553,8.8954759 92.859524,8.3199998 92.15,8.3205 L 75.5215,8.1805 C 74.938362,8.1156546 74.444114,7.7235176 74.248,7.171 74.164498,6.7152248 73.767361,6.3841368 73.3035,6.384 L 57.613,6.21 C 56.861432,6.2415495 56.22761,5.6557232 56.2,4.9035 L 56.167,1.473 C 56.205669,0.74677698 55.664954,0.11917757 54.9405,0.05 L 39.75,0.08 C 39.062919,0.05125192 38.483061,0.58585056 38.4555,1.273 L 38.455,4.83 C 38.344922,5.5501965 37.738105,6.0902426 37.01,6.116 L 20.382,6.253 c -0.494586,0.05447 -0.882516,0.449507 -0.928,0.945 l -0.0705,6.242 c -5e-4,1.334872 -1.082628,2.417 -2.4175,2.417 L 4.165,15.459 C 2.0130545,15.45889 0.22203052,17.111942 0.05,19.257 l 10e-4,50.568 c -0.02976534,1.240801 0.9678422,2.262795 2.209,2.263 l 14.935,0.024 c 1.064805,0 1.928,-0.863195 1.928,-1.928 l 0.113,-6.693 c -0.0018,-1.141513 0.819936,-2.117905 1.945,-2.311 l 13.5905,0.085 c 1.063584,-2.93e-4 1.967783,-0.775443 2.1305,-1.826 l 0.024,-1.813 c 0.04974,-1.047066 0.975767,-1.833063 2.017,-1.712 l 16.108,-0.196 c 1.178174,-0.104201 2.164201,0.881826 2.06,2.06 l -0.167,2.446 c 0.01261,1.282966 1.055972,2.316514 2.339,2.317 l 8.392,0.093 c 1.638955,-0.04804 3.037561,1.176119 3.207,2.807 l 0.788,18.7895 c 0.07595,0.853852 0.688974,1.564284 1.523,1.7645 17.426081,-1.606599 34.96521,1.466468 50.807,8.902 1.41252,0.62091 3.05803,-0.05719 3.6235,-1.493 l 4.5605,-10.527 c 0.99,-1.848484 0.0719,-4.142773 -1.92,-4.798 z"
     fill="none"
     stroke="#000000"
     stroke-width="0.1"
     stroke-linecap="round"
     stroke-linejoin="round"
     id="path2"
     sodipodi:nodetypes="cccccccccccccccccccccccccccccccccccccccccccccccccc"
     style="fill:none;fill-opacity:1" />
</svg>
