<svg xmlns:svg="http://www.w3.org/2000/svg" xmlns="http://www.w3.org/2000/svg" xmlns:xlink="http://www.w3.org/1999/xlink" version="1.1" width="132.6134mm" height="95.1738mm" viewBox="0.0000 0.0000 132.6134 95.1738">
<title>SVG Image created as cheapino-brd.svg date 2024/04/29 21:49:12 </title>
  <desc>Image generated by PCBNEW </desc>
<g style="fill:#000000; fill-opacity:1.0000;stroke:#000000; stroke-opacity:1.0000; stroke-linecap:round; stroke-linejoin:round;" transform="translate(0 0) scale(1 1)">
</g>


<g style="fill:none;  stroke:#000000; stroke-width:0.1500; stroke-opacity:1;  stroke-linecap:round; stroke-linejoin:round;">
<path d="M20.4646 7.1086 L35.4646 7.1086 "/>
<path d="M20.4646 22.1086 L20.4646 7.1086 "/>
</g>

<g style="fill:none;  stroke:#000000; stroke-width:0.1500; stroke-opacity:1;  stroke-linecap:round; stroke-linejoin:round;">
<path d="M35.4646 7.1086 L35.4646 22.1086 "/>
<path d="M35.4646 22.1086 L20.4646 22.1086 "/>
</g>

<g style="fill:none;  stroke:#000000; stroke-width:0.1500; stroke-opacity:1;  stroke-linecap:round; stroke-linejoin:round;">
<path d="M1.4654 17.1162 L16.4654 17.1162 "/>
<path d="M1.4654 32.1162 L1.4654 17.1162 "/>
</g>

<g style="fill:none;  stroke:#000000; stroke-width:0.1500; stroke-opacity:1;  stroke-linecap:round; stroke-linejoin:round;">
<path d="M16.4654 17.1162 L16.4654 32.1162 "/>
<path d="M16.4654 32.1162 L1.4654 32.1162 "/>
</g>



<g style="fill:none;  stroke:#000000; stroke-width:0.1500; stroke-opacity:1;  stroke-linecap:round; stroke-linejoin:round;">
<path d="M77.4622 47.6470 L92.4622 47.6470 "/>
<path d="M77.4622 62.6470 L77.4622 47.6470 "/>
</g>

<g style="fill:none;  stroke:#000000; stroke-width:0.1500; stroke-opacity:1;  stroke-linecap:round; stroke-linejoin:round;">
<path d="M92.4622 47.6470 L92.4622 62.6470 "/>
<path d="M92.4622 62.6470 L77.4622 62.6470 "/>
</g>

<g style="fill:none;  stroke:#000000; stroke-width:0.1500; stroke-opacity:1;  stroke-linecap:round; stroke-linejoin:round;">
<path d="M77.4622 9.6486 L92.4622 9.6486 "/>
<path d="M77.4622 24.6486 L77.4622 9.6486 "/>
</g>

<g style="fill:none;  stroke:#000000; stroke-width:0.1500; stroke-opacity:1;  stroke-linecap:round; stroke-linejoin:round;">
<path d="M92.4622 9.6486 L92.4622 24.6486 "/>
<path d="M92.4622 24.6486 L77.4622 24.6486 "/>
</g>

<g style="fill:none;  stroke:#000000; stroke-width:0.1500; stroke-opacity:1;  stroke-linecap:round; stroke-linejoin:round;">
<path d="M39.4638 19.7578 L54.4638 19.7578 "/>
<path d="M39.4638 34.7578 L39.4638 19.7578 "/>
</g>

<g style="fill:none;  stroke:#000000; stroke-width:0.1500; stroke-opacity:1;  stroke-linecap:round; stroke-linejoin:round;">
<path d="M54.4638 19.7578 L54.4638 34.7578 "/>
<path d="M54.4638 34.7578 L39.4638 34.7578 "/>
</g>

<g style="fill:none;  stroke:#000000; stroke-width:0.1500; stroke-opacity:1;  stroke-linecap:round; stroke-linejoin:round;">
<path d="M20.4646 45.1070 L35.4646 45.1070 "/>
<path d="M20.4646 60.1070 L20.4646 45.1070 "/>
</g>

<g style="fill:none;  stroke:#000000; stroke-width:0.1500; stroke-opacity:1;  stroke-linecap:round; stroke-linejoin:round;">
<path d="M35.4646 45.1070 L35.4646 60.1070 "/>
<path d="M35.4646 60.1070 L20.4646 60.1070 "/>
</g>

<g style="fill:none;  stroke:#000000; stroke-width:0.1500; stroke-opacity:1;  stroke-linecap:round; stroke-linejoin:round;">
<path d="M20.4646 26.1078 L35.4646 26.1078 "/>
<path d="M20.4646 41.1078 L20.4646 26.1078 "/>
</g>

<g style="fill:none;  stroke:#000000; stroke-width:0.1500; stroke-opacity:1;  stroke-linecap:round; stroke-linejoin:round;">
<path d="M35.4646 26.1078 L35.4646 41.1078 "/>
<path d="M35.4646 41.1078 L20.4646 41.1078 "/>
</g>

<g style="fill:none;  stroke:#000000; stroke-width:0.1500; stroke-opacity:1;  stroke-linecap:round; stroke-linejoin:round;">
<path d="M1.4654 36.1154 L16.4654 36.1154 "/>
<path d="M1.4654 51.1154 L1.4654 36.1154 "/>
</g>

<g style="fill:none;  stroke:#000000; stroke-width:0.1500; stroke-opacity:1;  stroke-linecap:round; stroke-linejoin:round;">
<path d="M16.4654 36.1154 L16.4654 51.1154 "/>
<path d="M16.4654 51.1154 L1.4654 51.1154 "/>
</g>

<g style="fill:none;  stroke:#000000; stroke-width:0.1500; stroke-opacity:1;  stroke-linecap:round; stroke-linejoin:round;">
<path d="M58.4630 26.1078 L73.4630 26.1078 "/>
<path d="M58.4630 41.1078 L58.4630 26.1078 "/>
</g>

<g style="fill:none;  stroke:#000000; stroke-width:0.1500; stroke-opacity:1;  stroke-linecap:round; stroke-linejoin:round;">
<path d="M73.4630 26.1078 L73.4630 41.1078 "/>
<path d="M73.4630 41.1078 L58.4630 41.1078 "/>
</g>

<g style="fill:none;  stroke:#000000; stroke-width:0.1500; stroke-opacity:1;  stroke-linecap:round; stroke-linejoin:round;">
<path d="M58.4630 7.1086 L73.4630 7.1086 "/>
<path d="M58.4630 22.1086 L58.4630 7.1086 "/>
</g>

<g style="fill:none;  stroke:#000000; stroke-width:0.1500; stroke-opacity:1;  stroke-linecap:round; stroke-linejoin:round;">
<path d="M73.4630 7.1086 L73.4630 22.1086 "/>
<path d="M73.4630 22.1086 L58.4630 22.1086 "/>
</g>

<g style="fill:none;  stroke:#000000; stroke-width:0.1500; stroke-opacity:1;  stroke-linecap:round; stroke-linejoin:round;">
<path d="M1.4654 55.1146 L16.4654 55.1146 "/>
<path d="M1.4654 70.1146 L1.4654 55.1146 "/>
</g>

<g style="fill:none;  stroke:#000000; stroke-width:0.1500; stroke-opacity:1;  stroke-linecap:round; stroke-linejoin:round;">
<path d="M16.4654 55.1146 L16.4654 70.1146 "/>
<path d="M16.4654 70.1146 L1.4654 70.1146 "/>
</g>

<g style="fill:none;  stroke:#000000; stroke-width:0.1500; stroke-opacity:1;  stroke-linecap:round; stroke-linejoin:round;">
<path d="M92.5542 84.1923 L95.1589 69.4202 "/>
</g>

<g style="fill:none;  stroke:#000000; stroke-width:0.1500; stroke-opacity:1;  stroke-linecap:round; stroke-linejoin:round;">
<path d="M95.1589 69.4202 L109.9311 72.0249 "/>
</g>

<g style="fill:none;  stroke:#000000; stroke-width:0.1500; stroke-opacity:1;  stroke-linecap:round; stroke-linejoin:round;">
<path d="M107.3263 86.7970 L92.5542 84.1923 "/>
</g>

<g style="fill:none;  stroke:#000000; stroke-width:0.1500; stroke-opacity:1;  stroke-linecap:round; stroke-linejoin:round;">
<path d="M109.9311 72.0249 L107.3263 86.7970 "/>
</g>

<g style="fill:none;  stroke:#000000; stroke-width:0.1500; stroke-opacity:1;  stroke-linecap:round; stroke-linejoin:round;">
<path d="M72.7886 69.3386 L87.7886 69.3386 "/>
<path d="M72.7886 84.3386 L72.7886 69.3386 "/>
</g>

<g style="fill:none;  stroke:#000000; stroke-width:0.1500; stroke-opacity:1;  stroke-linecap:round; stroke-linejoin:round;">
<path d="M87.7886 69.3386 L87.7886 84.3386 "/>
<path d="M87.7886 84.3386 L72.7886 84.3386 "/>
</g>

<g style="fill:none;  stroke:#000000; stroke-width:0.1500; stroke-opacity:1;  stroke-linecap:round; stroke-linejoin:round;">
<path d="M77.4622 28.6478 L92.4622 28.6478 "/>
<path d="M77.4622 43.6478 L77.4622 28.6478 "/>
</g>

<g style="fill:none;  stroke:#000000; stroke-width:0.1500; stroke-opacity:1;  stroke-linecap:round; stroke-linejoin:round;">
<path d="M92.4622 28.6478 L92.4622 43.6478 "/>
<path d="M92.4622 43.6478 L77.4622 43.6478 "/>
</g>

<g style="fill:none;  stroke:#000000; stroke-width:0.1500; stroke-opacity:1;  stroke-linecap:round; stroke-linejoin:round;">
<path d="M39.4638 0.7586 L54.4638 0.7586 "/>
<path d="M39.4638 15.7586 L39.4638 0.7586 "/>
</g>

<g style="fill:none;  stroke:#000000; stroke-width:0.1500; stroke-opacity:1;  stroke-linecap:round; stroke-linejoin:round;">
<path d="M54.4638 0.7586 L54.4638 15.7586 "/>
<path d="M54.4638 15.7586 L39.4638 15.7586 "/>
</g>

<g style="fill:none;  stroke:#000000; stroke-width:0.1500; stroke-opacity:1;  stroke-linecap:round; stroke-linejoin:round;">
<path d="M111.7293 87.7976 L117.5903 73.9901 "/>
</g>

<g style="fill:none;  stroke:#000000; stroke-width:0.1500; stroke-opacity:1;  stroke-linecap:round; stroke-linejoin:round;">
<path d="M117.5903 73.9901 L131.3979 79.8510 "/>
</g>

<g style="fill:none;  stroke:#000000; stroke-width:0.1500; stroke-opacity:1;  stroke-linecap:round; stroke-linejoin:round;">
<path d="M125.5369 93.6586 L111.7293 87.7976 "/>
</g>

<g style="fill:none;  stroke:#000000; stroke-width:0.1500; stroke-opacity:1;  stroke-linecap:round; stroke-linejoin:round;">
<path d="M131.3979 79.8510 L125.5369 93.6586 "/>
</g>

<g style="fill:none;  stroke:#000000; stroke-width:0.1500; stroke-opacity:1;  stroke-linecap:round; stroke-linejoin:round;">
<path d="M39.4638 38.7570 L54.4638 38.7570 "/>
<path d="M39.4638 53.7570 L39.4638 38.7570 "/>
</g>

<g style="fill:none;  stroke:#000000; stroke-width:0.1500; stroke-opacity:1;  stroke-linecap:round; stroke-linejoin:round;">
<path d="M54.4638 38.7570 L54.4638 53.7570 "/>
<path d="M54.4638 53.7570 L39.4638 53.7570 "/>
</g>

<g style="fill:none;  stroke:#000000; stroke-width:0.1500; stroke-opacity:1;  stroke-linecap:round; stroke-linejoin:round;">
<path d="M58.4630 45.1070 L73.4630 45.1070 "/>
<path d="M58.4630 60.1070 L58.4630 45.1070 "/>
</g>

<g style="fill:none;  stroke:#000000; stroke-width:0.1500; stroke-opacity:1;  stroke-linecap:round; stroke-linejoin:round;">
<path d="M73.4630 45.1070 L73.4630 60.1070 "/>
<path d="M73.4630 60.1070 L58.4630 60.1070 "/>
</g>

<g style="fill:none;  stroke:#000000; stroke-width:0.1000; stroke-opacity:1;  stroke-linecap:round; stroke-linejoin:round;">
<path d="M19.4541 7.1977 L19.3831 13.4402 "/>
<path d="M116.1833 38.0485 A0.7588 0.7588 0.0 0 0 117.1393 37.2689"/>
<path d="M71.6697 84.2303 A1.9974 1.9974 0.0 0 0 73.1933 85.9946"/>
<path d="M67.6747 62.6337 L59.2828 62.5408 "/>
<path d="M20.3822 6.2525 A1.0473 1.0473 0.0 0 0 19.4541 7.1977"/>
<path d="M56.1672 1.4728 L56.1998 4.9037 "/>
<path d="M132.1837 82.8767 A3.3744 3.3744 0.0 0 0 130.2644 78.0786"/>
<path d="M39.7502 0.0798 L54.9407 0.0500 "/>
<path d="M115.5184 68.3042 A4.8202 4.8202 0.0 0 0 118.8332 72.9250"/>
<path d="M39.7502 0.0798 A1.2427 1.2427 0.0 0 0 38.4557 1.2734"/>
<path d="M34.7718 61.2653 A2.1559 2.1559 0.0 0 0 36.9023 59.4391"/>
<path d="M16.9664 15.8569 A2.4167 2.4167 0.0 0 0 19.3831 13.4402"/>
<path d="M116.9762 15.5458 L117.1393 37.2689 "/>
<path d="M118.8332 72.9250 L130.2644 78.0786 "/>
<path d="M21.1814 61.1797 L34.7718 61.2653 "/>
<path d="M4.1648 15.4590 A4.1280 4.1280 0.0 0 0 0.0500 19.2568"/>
<path d="M38.4548 4.8296 L38.4557 1.2734 "/>
<path d="M0.0514 69.8252 L0.0500 19.2568 "/>
<path d="M116.9762 15.5458 A3.4127 3.4127 0.0 0 0 113.3300 11.5633"/>
<path d="M2.2598 72.0881 L17.1950 72.1116 "/>
<path d="M93.4340 9.6048 A1.8941 1.8941 0.0 0 0 95.3590 11.6002"/>
<path d="M115.3514 38.7931 L115.5184 68.3042 "/>
<path d="M75.5215 8.1805 L92.1504 8.3212 "/>
<path d="M0.0514 69.8252 A2.2091 2.2091 0.0 0 0 2.2598 72.0881"/>
<path d="M56.9437 60.2243 A2.3392 2.3392 0.0 0 0 59.2828 62.5408"/>
<path d="M19.2358 63.4912 L19.1228 70.1838 "/>
<path d="M56.1672 1.4728 A1.3567 1.3567 0.0 0 0 54.9407 0.0500"/>
<path d="M132.1837 82.8767 L127.6231 93.4043 "/>
<path d="M57.1114 57.7783 L56.9437 60.2243 "/>
<path d="M17.1950 72.1116 A1.9278 1.9278 0.0 0 0 19.1228 70.1838"/>
<path d="M57.6133 6.2105 L73.3036 6.3840 "/>
<path d="M21.1814 61.1797 A2.3412 2.3412 0.0 0 0 19.2358 63.4912"/>
<path d="M4.1648 15.4590 L16.9664 15.8569 "/>
<path d="M37.0106 6.1160 L20.3822 6.2525 "/>
<path d="M124.0008 94.8970 A2.7178 2.7178 0.0 0 0 127.6231 93.4043"/>
<path d="M93.4340 9.6048 A1.2836 1.2836 0.0 0 0 92.1504 8.3212"/>
<path d="M37.0106 6.1160 A1.5159 1.5159 0.0 0 0 38.4548 4.8296"/>
<path d="M56.1998 4.9037 A1.3567 1.3567 0.0 0 0 57.6133 6.2105"/>
<path d="M74.2480 7.1711 A0.9602 0.9602 0.0 0 0 73.3036 6.3840"/>
<path d="M36.9256 57.6257 L36.9023 59.4391 "/>
<path d="M70.8815 65.4413 A3.1318 3.1318 0.0 0 0 67.6747 62.6337"/>
<path d="M70.8816 65.4413 L71.6697 84.2303 "/>
<path d="M55.0514 55.7182 L38.9425 55.9137 "/>
<path d="M57.1114 57.7783 A1.9000 1.9000 0.0 0 0 55.0514 55.7182"/>
<path d="M95.3590 11.6002 L113.3300 11.5633 "/>
<path d="M116.1833 38.0485 A0.7025 0.7025 0.0 0 0 115.3514 38.7931"/>
<path d="M38.9425 55.9137 A1.8107 1.8107 0.0 0 0 36.9256 57.6257"/>
<path d="M74.2480 7.1711 A1.5315 1.5315 0.0 0 0 75.5215 8.1805"/>
<path d="M124.0008 94.8970 A98.3312 98.3312 0.0 0 0 73.1933 85.9946"/>
</g> 
</svg>
