<?xml version="1.0" encoding="UTF-8" standalone="no"?>
<svg
   version="1.1"
   width="132.6134mm"
   height="95.1738mm"
   viewBox="0.0000 0.0000 132.6134 95.1738"
   id="svg512"
   sodipodi:docname="cheapino-brd-ink.svg"
   inkscape:version="1.2.1 (9c6d41e4, 2022-07-14)"
   xmlns:inkscape="http://www.inkscape.org/namespaces/inkscape"
   xmlns:sodipodi="http://sodipodi.sourceforge.net/DTD/sodipodi-0.dtd"
   xmlns="http://www.w3.org/2000/svg"
   xmlns:svg="http://www.w3.org/2000/svg">
  <defs
     id="defs516" />
  <sodipodi:namedview
     id="namedview514"
     pagecolor="#ffffff"
     bordercolor="#666666"
     borderopacity="1.0"
     inkscape:showpageshadow="2"
     inkscape:pageopacity="0.0"
     inkscape:pagecheckerboard="0"
     inkscape:deskcolor="#d1d1d1"
     inkscape:document-units="mm"
     showgrid="false"
     inkscape:zoom="11.313709"
     inkscape:cx="449.67572"
     inkscape:cy="142.65879"
     inkscape:window-width="1761"
     inkscape:window-height="1076"
     inkscape:window-x="1729"
     inkscape:window-y="17"
     inkscape:window-maximized="0"
     inkscape:current-layer="g510" />
  <title
     id="title298">SVG Image created as cheapino-brd.svg date 2023/12/24 12:32:01 </title>
  <desc
     id="desc300">Image generated by PCBNEW </desc>
  <g
     style="fill:#000000; fill-opacity:1.0000;stroke:#000000; stroke-opacity:1.0000; stroke-linecap:round; stroke-linejoin:round;"
     transform="translate(0 0) scale(1 1)"
     id="g302" />
  <g
     style="fill:#000000; fill-opacity:0.0;  stroke:#000000; stroke-width:0.0000; stroke-opacity:1;  stroke-linecap:round; stroke-linejoin:round;"
     id="g304" />
  <g
     style="fill:#000000; fill-opacity:0.0;  stroke:#000000; stroke-width:0.1000; stroke-opacity:1;  stroke-linecap:round; stroke-linejoin:round;"
     id="g510">
    <path
       id="path402"
       d="m 116.9762,15.5458 c 0.38063,-2.200816 -1.42043,-4.167989 -3.6462,-3.9825 L 98.595716,11.5936 95.359,11.6002 c -1.099137,0.01952 -1.98397,-0.897672 -1.925,-1.9954 0,-0.7089127 -0.574687,-1.2836 -1.2836,-1.2836 L 75.5215,8.1805 C 74.938775,8.1155531 74.444277,7.7236048 74.248,7.1711 74.16444,6.7151799 73.767114,6.384033 73.3036,6.384 L 57.6133,6.2105 C 56.861176,6.2425018 56.22681,5.6560199 56.1998,4.9037 L 56.1672,1.4728 C 56.205899,0.74642252 55.664849,0.11877782 54.9407,0.05 L 39.7502,0.0798 C 39.06264,0.05060116 38.48227,0.58573332 38.4557,1.2734 l -9e-4,3.5562 C 38.344991,5.5496881 37.738544,6.089872 37.0106,6.116 L 20.3822,6.2525 c -0.494639,0.054554 -0.88259,0.4496479 -0.9281,0.9452 l -0.071,6.2425 c 0,1.334707 -1.081993,2.4167 -2.4167,2.4167 L 4.1648,15.459 C 2.0130023,15.458986 0.22212296,17.111897 0.05,19.2568 l 0.0014,50.5684 c -0.03022552,1.240732 0.9672997,2.262875 2.2084,2.2629 l 14.9352,0.0235 c 1.064695,0 1.9278,-0.863105 1.9278,-1.9278 l 0.113,-6.6926 c -0.0019,-1.141863 0.820155,-2.118557 1.9456,-2.3115 l 13.5904,0.0856 c 1.063354,-2e-5 1.967882,-0.775354 2.1305,-1.8262 l 0.0233,-1.8134 c 0.05017,-1.046813 0.975842,-1.832548 2.0169,-1.712 l 16.1089,-0.1955 c 1.178218,-0.10421 2.164268,0.881887 2.06,2.0601 l -0.1677,2.446 c 0.01245,1.282992 1.056048,2.316506 2.3391,2.3165 l 8.3919,0.0929 c 1.639123,-0.04801 3.03775,1.176511 3.20685,2.8076 l 0.78815,18.789 c 0.07643,0.854206 0.689633,1.564278 1.5236,1.7643 17.426282,-1.606555 34.96559,1.466652 50.8075,8.9024 1.41225,0.620583 3.05729,-0.05731 3.6223,-1.4927 l 4.5606,-10.5276 c 0.9898,-1.848316 0.0722,-4.142326 -1.9193,-4.7981 L 118.8332,72.925 c -1.99261,-0.654995 -3.3329,-2.523375 -3.3148,-4.6208 l -0.167,-29.5111 c -0.0359,-0.461744 0.37695,-0.83131 0.8319,-0.7446 0.50155,0.136066 0.98837,-0.260927 0.956,-0.7796 z"
       sodipodi:nodetypes="ccccccccccccccccccccccccccccccccccccccccccccccccccc" />
    <g
       id="g404" />
    <g
       id="g406" />
    <g
       id="g408" />
    <g
       id="g410" />
    <g
       id="g412" />
    <g
       id="g414" />
    <g
       id="g416" />
    <g
       id="g418" />
    <g
       id="g420" />
    <g
       id="g422" />
    <g
       id="g424" />
    <g
       id="g426" />
    <g
       id="g428" />
    <g
       id="g430" />
    <g
       id="g432" />
    <g
       id="g434" />
    <g
       id="g436" />
    <g
       id="g438" />
    <g
       id="g440" />
    <g
       id="g442" />
    <g
       id="g444" />
    <g
       id="g446" />
    <g
       id="g448" />
    <g
       id="g450" />
    <g
       id="g452" />
    <g
       id="g454" />
    <g
       id="g456" />
    <g
       id="g458" />
    <g
       id="g460" />
    <g
       id="g462" />
    <g
       id="g464" />
    <g
       id="g466" />
    <g
       id="g468" />
    <g
       id="g470" />
    <g
       id="g472" />
    <g
       id="g474" />
    <g
       id="g476" />
    <g
       id="g478" />
    <g
       id="g480" />
    <g
       id="g482" />
    <g
       id="g484" />
    <g
       id="g486" />
    <g
       id="g488" />
    <g
       id="g490" />
    <g
       id="g492" />
    <g
       id="g494" />
    <g
       id="g496" />
    <g
       id="g498" />
    <g
       id="g500" />
    <g
       id="g502" />
    <g
       id="g504" />
    <g
       id="g506" />
    <g
       id="g508" />
  </g>
</svg>
